<svg width="180" height="63" viewBox="0 0 180 63" fill="none" xmlns="http://www.w3.org/2000/svg">
<path d="M4.59605 5.75196H6.10391C6.33775 5.75196 6.52724 5.56246 6.52724 5.32862V1.24046C6.52724 1.00662 6.33775 0.817139 6.10391 0.817139H1.27392C1.04008 0.817139 0.850586 1.00662 0.850586 1.24046V37.8726C0.850586 38.1065 1.04008 38.296 1.27392 38.296H6.10391C6.33775 38.296 6.52724 38.1065 6.52724 37.8726V9.27971C6.52724 9.17891 6.49096 9.08216 6.42645 9.00555L4.27351 6.44138C4.04371 6.16722 4.23723 5.74793 4.59605 5.74793V5.75196Z" fill="#0D5EFF"/>
<path d="M32.4513 1.14366C31.1369 0.385699 29.367 0.00268555 27.202 0.00268555C25.4442 0.00268555 23.8355 0.470363 22.4204 1.39363C21.5939 1.93388 20.8601 2.56282 20.2231 3.28853L19.2716 0.821123H15.9333V38.3H21.7713V9.74331C21.7713 9.23128 22.0132 8.63055 22.4889 7.94919C23.009 7.21542 23.7105 6.57841 24.5814 6.05429C25.4321 5.54226 26.307 5.29632 27.2544 5.29632C28.1696 5.29632 29.3469 5.43341 29.7541 6.08251C30.1734 6.75178 30.3871 7.61456 30.3871 8.65474V38.304H36.225V8.65474C36.225 7.05818 35.9387 5.6108 35.3743 4.34081C34.7776 3.00228 33.7979 1.92984 32.4473 1.14769L32.4513 1.14366Z" fill="#0D5EFF"/>
<path d="M63.0399 22.3585L53.2187 12.9203C52.4486 12.2148 51.9648 11.5576 51.7793 10.969C51.5737 10.3078 51.4689 9.44899 51.4689 8.42897C51.4689 7.44926 51.7713 6.70743 52.3841 6.15912C53.0292 5.58661 54.1056 5.29229 55.5893 5.29229C57.069 5.29229 58.1454 5.58661 58.7865 6.15508C59.4033 6.70743 59.7057 7.45329 59.7057 8.42897V14.2951H65.5436V8.65071C65.5436 6.018 64.7332 3.89329 63.1407 2.33302C61.5522 0.784838 59.0647 0.00268555 55.7546 0.00268555C52.4164 0.00268555 49.8764 0.776773 48.1992 2.31286C46.4978 3.8691 45.635 6.00188 45.635 8.65071C45.635 10.3319 45.8688 11.7955 46.3285 12.9929C46.7921 14.2064 47.6468 15.4603 48.8846 16.7343L58.4922 26.1242C59.2743 26.87 59.7621 27.5514 59.9436 28.1441C60.1492 28.8133 60.254 29.668 60.254 30.684C60.254 31.6194 59.9315 32.3532 59.2703 32.9176C58.5728 33.5143 57.4278 33.8207 55.8635 33.8207C54.2992 33.8207 53.1542 33.5143 52.4567 32.9176C51.7955 32.3491 51.4729 31.6194 51.4729 30.684V24.8219H45.635V30.4663C45.635 33.1111 46.4857 35.2399 48.1669 36.8002C49.828 38.3322 52.4164 39.1103 55.8635 39.1103C59.3509 39.1103 61.9473 38.3322 63.5923 36.7921C65.2533 35.2358 66.0919 33.1071 66.0919 30.4663C66.0919 28.7287 65.8863 27.3014 65.463 26.096C65.0356 24.8663 64.2414 23.6447 63.0399 22.3545V22.3585Z" fill="#0D5EFF"/>
<path d="M84.2065 0.817139H74.9578V38.296H80.7957V27.3861H84.2065C87.4037 27.3861 89.8469 26.604 91.4556 25.0598C93.0723 23.5076 93.8867 21.3789 93.8867 18.7421V9.4692C93.8867 6.83246 93.0561 4.70371 91.4193 3.14343C89.7945 1.60332 87.3674 0.821168 84.2025 0.821168L84.2065 0.817139ZM84.2065 22.0925H80.7957V6.10675H84.2065C85.533 6.10675 86.5167 6.40913 87.1336 7.00179C87.7504 7.59042 88.0528 8.39676 88.0528 9.46113V18.7341C88.0528 19.8065 87.7585 20.6129 87.1577 21.2015C86.553 21.7901 85.5612 22.0885 84.2065 22.0885V22.0925Z" fill="#0D5EFF"/>
<path d="M113.473 -0.00134159C110.167 -0.00134159 107.659 0.77678 106.018 2.3169C104.357 3.87314 103.518 6.00188 103.518 8.64266V30.4623C103.518 33.1111 104.381 35.2439 106.082 36.8002C107.76 38.3322 110.284 39.1063 113.581 39.1063C116.887 39.1063 119.395 38.3282 121.036 36.7881C122.697 35.2318 123.536 33.1031 123.536 30.4623V26.4507H117.698V30.4623C117.698 31.5267 117.391 32.329 116.762 32.9136C116.125 33.5103 115.053 33.8167 113.581 33.8167C112.11 33.8167 110.965 33.5103 110.308 32.9055C109.667 32.3209 109.356 31.5226 109.356 30.4623V21.653H123.54V8.64266C123.54 5.99382 122.677 3.86104 120.98 2.3048C119.298 0.772748 116.779 -0.00537109 113.477 -0.00537109L113.473 -0.00134159ZM113.473 5.28827C114.989 5.28827 116.093 5.59065 116.754 6.17928C117.387 6.74775 117.698 7.5541 117.698 8.64669V16.3674H109.352V8.64669C109.352 7.55007 109.659 6.73969 110.279 6.17525C110.921 5.59065 111.993 5.28827 113.469 5.28827H113.473Z" fill="#0D5EFF"/>
<path d="M142.739 -0.0012207C141.001 -0.0012207 139.578 0.575317 138.51 1.70823C138.05 2.19607 137.635 2.74438 137.268 3.34108L136.28 0.817223H132.942V38.2961H138.78V12.356C138.78 10.574 139.01 9.13868 139.461 8.09044C139.897 7.07848 140.421 6.34874 141.013 5.91331C141.578 5.49805 142.102 5.2884 142.574 5.2884C143.521 5.2884 143.86 5.619 144.037 5.86896C144.388 6.36486 144.565 7.04622 144.565 7.88079V12.6543H150.238V8.0985C150.238 5.48192 149.589 3.45799 148.299 2.09124C146.996 0.700299 145.13 -0.0012207 142.739 -0.0012207Z" fill="#0D5EFF"/>
<path d="M176.645 2.28477C175.005 0.768842 172.553 -0.0012207 169.36 -0.0012207C166.163 -0.0012207 163.728 0.77287 162.119 2.29283C160.498 3.83294 159.68 5.96976 159.68 8.64681V12.6543H165.518V8.42507C165.518 7.4373 165.804 6.6874 166.397 6.13505C167.002 5.57464 167.997 5.28839 169.36 5.28839C170.763 5.28839 171.791 5.57867 172.416 6.14715C173.021 6.69949 173.319 7.44536 173.319 8.4291V16.3675H167.997C165.897 16.3675 164.167 16.7506 162.853 17.5126C161.502 18.2947 160.527 19.3712 159.954 20.7097C159.41 21.9797 159.136 23.4231 159.136 25.0115V30.4665C159.136 32.0146 159.41 33.4499 159.954 34.732C160.531 36.1028 161.506 37.1914 162.857 37.9695C164.171 38.7315 165.901 39.1145 168.001 39.1145C169.719 39.1145 171.299 38.6589 172.698 37.7558C173.513 37.2276 174.23 36.6027 174.855 35.8811L175.835 38.296H179.157V8.64681C179.157 5.96572 178.315 3.82488 176.654 2.28477H176.645ZM167.993 33.8208C167.127 33.8208 166.014 33.6838 165.603 33.0387C165.179 32.3694 164.966 31.5026 164.966 30.4665V25.0115C164.966 23.9754 165.179 23.1126 165.603 22.4393C166.01 21.7942 167.127 21.6572 167.993 21.6572H173.315V29.4908C173.291 30.0068 173.029 30.5995 172.533 31.2486C171.993 31.9663 171.303 32.5871 170.485 33.1032C169.715 33.587 168.901 33.8208 167.993 33.8208Z" fill="#0D5EFF"/>
<path d="M17.8284 51.1692C17.3244 51.1692 17.0745 51.4716 17.0745 52.0804V57.1321C17.0745 57.7409 17.3244 58.0433 17.8284 58.0433C18.3324 58.0433 18.5823 57.7409 18.5823 57.1321V52.0804C18.5823 51.4716 18.3324 51.1692 17.8284 51.1692Z" fill="#0D5EFF"/>
<path d="M119.359 51.2983H118.698V53.9431H119.226C119.516 53.9431 119.734 53.8665 119.879 53.7174C120.024 53.5682 120.097 53.3182 120.097 52.9634V52.2498C120.097 51.9152 120.036 51.6733 119.919 51.5241C119.802 51.3749 119.613 51.2983 119.359 51.2983Z" fill="#0D5EFF"/>
<path d="M144.303 51.5925L143.666 56.1685H144.977L144.327 51.5925H144.303Z" fill="#0D5EFF"/>
<path d="M27.444 51.2982H26.7021V57.9102H27.444C27.6819 57.9102 27.8633 57.8417 27.9923 57.6966C28.1213 57.5554 28.1858 57.3256 28.1858 57.0071V52.1933C28.1858 51.8748 28.1213 51.645 27.9923 51.5038C27.8633 51.3627 27.6819 51.2942 27.444 51.2942V51.2982Z" fill="#0D5EFF"/>
<path d="M36.9669 51.2983H36.3057V53.9431H36.8338C37.1241 53.9431 37.3418 53.8665 37.487 53.7174C37.6321 53.5682 37.7047 53.3182 37.7047 52.9634V52.2498C37.7047 51.9152 37.6442 51.6733 37.5273 51.5241C37.4104 51.3749 37.2209 51.2983 36.9669 51.2983Z" fill="#0D5EFF"/>
<path d="M8.25287 55.0679H7.60376V57.9102H8.43832C8.69232 57.9102 8.88182 57.8417 9.0068 57.7046C9.13178 57.5675 9.19226 57.3337 9.19226 56.9991V56.1927C9.19226 55.7694 9.11969 55.4751 8.97454 55.3138C8.8294 55.1525 8.5875 55.0679 8.25287 55.0679Z" fill="#0D5EFF"/>
<path d="M163.716 51.5925L163.079 56.1685H164.389L163.744 51.5925H163.716Z" fill="#0D5EFF"/>
<path d="M0.84668 46.186V62.454H179.149V46.186H0.84668ZM110.179 48.0043H111.473V49.355H110.179V48.0043ZM108.143 48.0043H109.437V49.355H108.143V48.0043ZM83.8355 48.0043H85.1337V49.355H83.8355V48.0043ZM81.7995 48.0043H83.0977V49.355H81.7995V48.0043ZM10.6478 57.0354C10.6478 57.749 10.4583 58.2933 10.0874 58.6682C9.71242 59.0432 9.16411 59.2286 8.44243 59.2286H6.15242V49.9718H8.3497C9.0996 49.9718 9.64388 50.1452 9.99061 50.4959C10.3333 50.8427 10.5067 51.3789 10.5067 52.1046V52.4755C10.5067 52.9513 10.4301 53.3383 10.2769 53.6407C10.1237 53.939 9.88579 54.1567 9.56728 54.2898V54.318C10.289 54.5639 10.6518 55.209 10.6518 56.2492V57.0434L10.6478 57.0354ZM20.0376 57.0354C20.0376 57.7772 19.8482 58.3497 19.4692 58.7529C19.0902 59.1601 18.5419 59.3617 17.8283 59.3617C17.1147 59.3617 16.5663 59.1601 16.1874 58.7529C15.8084 58.3457 15.6189 57.7732 15.6189 57.0354V52.1691C15.6189 51.4273 15.8084 50.8548 16.1874 50.4516C16.5663 50.0444 17.1147 49.8428 17.8283 49.8428C18.5419 49.8428 19.0902 50.0444 19.4692 50.4516C19.8482 50.8588 20.0376 51.4313 20.0376 52.1691V57.0354ZM29.6372 56.9427C29.6372 57.6925 29.4557 58.261 29.0969 58.6481C28.7341 59.0351 28.1938 59.2286 27.4721 59.2286H25.2507V49.9718H27.4721C28.1938 49.9718 28.7381 50.1653 29.0969 50.5524C29.4598 50.9394 29.6372 51.5079 29.6372 52.2578V56.9386V56.9427ZM37.8498 59.2327C37.7974 59.0835 37.7611 58.9424 37.7449 58.8093C37.7288 58.6763 37.7167 58.4384 37.7167 58.0957V56.4024C37.7167 55.9791 37.6482 55.6848 37.5111 55.5154C37.374 55.3461 37.1402 55.2655 36.8015 55.2655H36.2976V59.2327H34.8421V49.9758H36.9991C37.749 49.9758 38.2933 50.1492 38.64 50.5C38.9827 50.8467 39.156 51.3829 39.156 52.1086V52.6771C39.156 53.6366 38.8375 54.2454 38.2046 54.5035V54.5317C38.5553 54.6365 38.8053 54.8542 38.9504 55.1808C39.0956 55.5074 39.1681 55.9428 39.1681 56.4911V58.1159C39.1681 58.382 39.1762 58.5957 39.1964 58.7569C39.2125 58.9182 39.2568 59.0795 39.3294 59.2407H37.8498V59.2327ZM48.6951 57.0354C48.6951 57.7853 48.5096 58.3618 48.1387 58.761C47.7678 59.1641 47.2316 59.3617 46.526 59.3617C45.8205 59.3617 45.2842 59.1601 44.9133 58.761C44.5424 58.3618 44.357 57.7853 44.357 57.0354V49.9718H45.8124V57.1402C45.8124 57.4587 45.8769 57.6885 46.0059 57.8296C46.1349 57.9707 46.3164 58.0393 46.5542 58.0393C46.7921 58.0393 46.9735 57.9707 47.1026 57.8296C47.2316 57.6885 47.2961 57.4587 47.2961 57.1402V49.9718H48.6991V57.0354H48.6951ZM59.9879 59.2327H58.6131V52.2215H58.5849L57.5286 59.2327H56.311L55.2547 52.2215H55.2265V59.2327H53.9565V49.9758H56.0328L56.9601 56.6H56.9843L57.9116 49.9758H59.9879V59.2327ZM74.9174 59.2327L73.6877 55.1082L73.1071 56.2855V59.2367H71.6517V49.9799H73.1071V53.8826L74.9577 49.9799H76.4131L74.6795 53.3786L76.4373 59.2367H74.9174V59.2327ZM85.6296 57.0354C85.6296 57.7853 85.4442 58.3618 85.0733 58.761C84.7023 59.1641 84.1661 59.3617 83.4606 59.3617C82.755 59.3617 82.2188 59.1601 81.8479 58.761C81.477 58.3618 81.2915 57.7853 81.2915 57.0354V49.9718H82.7469V57.1402C82.7469 57.4587 82.8115 57.6885 82.9405 57.8296C83.0695 57.9707 83.2509 58.0393 83.4888 58.0393C83.7267 58.0393 83.9081 57.9707 84.0371 57.8296C84.1661 57.6885 84.2306 57.4587 84.2306 57.1402V49.9718H85.6337V57.0354H85.6296ZM94.7413 59.2327H90.891V49.9758H92.3465V57.9103H94.7413V59.2327ZM102.756 51.2982H101.236V59.2327H99.7809V51.2982H98.261V49.9758H102.756V51.2982ZM111.973 57.0394C111.973 57.7893 111.787 58.3658 111.416 58.765C111.046 59.1682 110.509 59.3657 109.804 59.3657C109.098 59.3657 108.562 59.1641 108.191 58.765C107.82 58.3658 107.635 57.7893 107.635 57.0394V49.9758H109.09V57.1442C109.09 57.4627 109.155 57.6925 109.284 57.8337C109.413 57.9748 109.594 58.0433 109.832 58.0433C110.07 58.0433 110.251 57.9748 110.38 57.8337C110.509 57.6925 110.574 57.4627 110.574 57.1442V49.9758H111.977V57.0394H111.973ZM120.238 59.2367C120.185 59.0875 120.149 58.9464 120.133 58.8134C120.117 58.6803 120.105 58.4424 120.105 58.0998V56.4064C120.105 55.9831 120.036 55.6888 119.899 55.5195C119.762 55.3501 119.528 55.2695 119.194 55.2695H118.69V59.2367H117.234V49.9799H119.391C120.141 49.9799 120.689 50.1532 121.032 50.504C121.375 50.8507 121.548 51.3869 121.548 52.1127V52.6811C121.548 53.6407 121.23 54.2495 120.597 54.5075V54.5357C120.947 54.6405 121.197 54.8583 121.343 55.1848C121.488 55.5114 121.56 55.9468 121.56 56.4951V58.1199C121.56 58.386 121.568 58.5997 121.588 58.761C121.605 58.9222 121.649 59.0835 121.722 59.2448H120.242L120.238 59.2367ZM136.671 58.761C136.296 59.1682 135.752 59.3697 135.038 59.3697C134.325 59.3697 133.801 59.1682 133.438 58.769C133.075 58.3699 132.897 57.7933 132.897 57.0434V56.5153H134.272V57.1483C134.272 57.749 134.522 58.0473 135.026 58.0473C135.272 58.0473 135.462 57.9748 135.587 57.8296C135.716 57.6845 135.78 57.4466 135.78 57.1241C135.78 56.737 135.691 56.3943 135.514 56.1C135.337 55.8057 135.01 55.4509 134.534 55.0356C133.934 54.5075 133.514 54.0277 133.276 53.6004C133.039 53.173 132.918 52.6892 132.918 52.153C132.918 51.4232 133.103 50.8548 133.474 50.4556C133.845 50.0524 134.381 49.8549 135.087 49.8549C135.792 49.8549 136.308 50.0565 136.667 50.4556C137.026 50.8548 137.203 51.4313 137.203 52.1812V52.5642H135.829V52.0885C135.829 51.77 135.768 51.5401 135.643 51.395C135.518 51.2499 135.341 51.1773 135.103 51.1773C134.619 51.1773 134.377 51.4716 134.377 52.0643C134.377 52.3989 134.466 52.7134 134.647 53.0037C134.829 53.294 135.155 53.6487 135.631 54.06C136.24 54.5881 136.659 55.0679 136.889 55.5033C137.119 55.9388 137.232 56.4427 137.232 57.0233C137.232 57.7813 137.046 58.3618 136.671 58.769V58.761ZM145.408 59.2367L145.142 57.3982V57.4265H143.489L143.223 59.2367H141.872L143.38 49.9799H145.351L146.859 59.2367H145.404H145.408ZM156.358 59.2367H154.862L153.117 52.4795H153.088V59.2367H151.79V49.9799H153.616L155.032 55.5195H155.056V49.9799H156.354V59.2367H156.358ZM164.821 59.2367L164.554 57.3982V57.4265H162.901L162.635 59.2367H161.285L162.793 49.9799H164.764L166.272 59.2367H164.817H164.821ZM174.714 51.3023H173.194V59.2367H171.739V51.3023H170.219V49.9799H174.714V51.3023Z" fill="#0D5EFF"/>
<path d="M8.82952 53.5198C8.97466 53.3706 9.04723 53.1207 9.04723 52.7659V52.2498C9.04723 51.9152 8.98676 51.6733 8.86984 51.5241C8.75292 51.3749 8.56343 51.2983 8.30943 51.2983H7.60791V53.7456H8.17638C8.46667 53.7456 8.68438 53.669 8.82952 53.5198Z" fill="#0D5EFF"/>
</svg>
